<svg width="308" height="126" fill="none" xmlns="http://www.w3.org/2000/svg"><path d="M220.032 102.296c.448-.784 1.104-1.424 1.968-1.92.864-.496 1.848-.744 2.952-.744 1.184 0 2.248.28 3.192.84.944.56 1.688 1.352 2.232 2.376.544 1.008.816 2.184.816 3.528 0 1.328-.272 2.512-.816 3.552-.544 1.04-1.296 1.848-2.256 2.424-.944.576-2 .864-3.168.864-1.136 0-2.136-.248-3-.744-.848-.496-1.488-1.128-1.92-1.896V113h-2.184V95.24h2.184v7.056Zm8.928 4.08c0-.992-.2-1.856-.6-2.592-.4-.736-.944-1.296-1.632-1.68a4.419 4.419 0 0 0-2.232-.576c-.8 0-1.544.2-2.232.6-.672.384-1.216.952-1.632 1.704-.4.736-.6 1.592-.6 2.568 0 .992.2 1.864.6 2.616.416.736.96 1.304 1.632 1.704a4.505 4.505 0 0 0 2.232.576c.816 0 1.56-.192 2.232-.576a4.295 4.295 0 0 0 1.632-1.704c.4-.752.6-1.632.6-2.64Zm7.291-11.136V113h-2.184V95.24h2.184Zm9.458 17.976c-1.232 0-2.352-.28-3.36-.84a6.105 6.105 0 0 1-2.352-2.376c-.56-1.04-.84-2.24-.84-3.6 0-1.344.288-2.528.864-3.552.592-1.04 1.392-1.832 2.4-2.376 1.008-.56 2.136-.84 3.384-.84 1.248 0 2.376.28 3.384.84a5.897 5.897 0 0 1 2.376 2.352c.592 1.024.888 2.216.888 3.576 0 1.36-.304 2.56-.912 3.6a6.178 6.178 0 0 1-2.424 2.376c-1.024.56-2.16.84-3.408.84Zm0-1.92c.784 0 1.52-.184 2.208-.552.688-.368 1.24-.92 1.656-1.656.432-.736.648-1.632.648-2.688 0-1.056-.208-1.952-.624-2.688-.416-.736-.96-1.28-1.632-1.632a4.474 4.474 0 0 0-2.184-.552c-.8 0-1.536.184-2.208.552-.656.352-1.184.896-1.584 1.632-.4.736-.6 1.632-.6 2.688 0 1.072.192 1.976.576 2.712.4.736.928 1.288 1.584 1.656a4.496 4.496 0 0 0 2.16.528Zm15.04-11.664c1.136 0 2.128.248 2.976.744.864.496 1.504 1.12 1.92 1.872v-2.4h2.208v13.44c0 1.2-.256 2.264-.768 3.192a5.434 5.434 0 0 1-2.208 2.208c-.944.528-2.048.792-3.312.792-1.728 0-3.168-.408-4.32-1.224-1.152-.816-1.832-1.928-2.04-3.336h2.16c.24.8.736 1.44 1.488 1.92.752.496 1.656.744 2.712.744 1.2 0 2.176-.376 2.928-1.128.768-.752 1.152-1.808 1.152-3.168v-2.76c-.432.768-1.072 1.408-1.92 1.92-.848.512-1.84.768-2.976.768-1.168 0-2.232-.288-3.192-.864-.944-.576-1.688-1.384-2.232-2.424-.544-1.04-.816-2.224-.816-3.552 0-1.344.272-2.52.816-3.528.544-1.024 1.288-1.816 2.232-2.376.96-.56 2.024-.84 3.192-.84Zm4.896 6.768c0-.992-.2-1.856-.6-2.592-.4-.736-.944-1.296-1.632-1.68-.672-.4-1.416-.6-2.232-.6-.816 0-1.56.192-2.232.576-.672.384-1.208.944-1.608 1.68-.4.736-.6 1.6-.6 2.592 0 1.008.2 1.888.6 2.64.4.736.936 1.304 1.608 1.704a4.419 4.419 0 0 0 2.232.576c.816 0 1.56-.192 2.232-.576a4.295 4.295 0 0 0 1.632-1.704c.4-.752.6-1.624.6-2.616ZM63.703 67.734c.281 0 .547.172.797.516.281.344.5.766.656 1.266.156.468.235.89.235 1.265.03.375-.094.578-.375.61-6.844.156-14.016.906-21.516 2.25-.281 1.968-1.14 3.812-2.578 5.53-1.406 1.688-2.922 3.141-4.547 4.36-3.781 2.875-8.547 5.547-14.297 8.016-5.75 2.5-10.969 3.812-15.656 3.937-2.719-.343-4.36-1.312-4.922-2.906-.563-1.594.125-3.39 2.063-5.39 3.218-2.907 6.89-5.313 11.015-7.22A118.914 118.914 0 0 1 26.953 75c3.969-1.344 8-2.5 12.094-3.469-.5-.844-1.219-1.594-2.156-2.25a24.798 24.798 0 0 0-2.672-1.781 5.234 5.234 0 0 1-.703-.422 206.927 206.927 0 0 0-5.86-3 119.439 119.439 0 0 1-7.172-3.703 38.342 38.342 0 0 1-6.562-4.64c-3.656-3.47-5.61-6.782-5.86-9.938-.218-3.188.75-6.188 2.907-9 2.187-2.844 5.047-5.5 8.578-7.969 2.875-2.062 6.453-4.125 10.734-6.187A67.57 67.57 0 0 1 43.5 17.906c4.5-1.093 8.516-1.203 12.047-.328 2.594 1 4.203 2.578 4.828 4.735.656 2.125.656 4.406 0 6.843-.656 2.407-1.64 4.547-2.953 6.422a16.388 16.388 0 0 1-2.766 3.281c-.781.594-1.484.72-2.11.375-.624-.375-.983-.906-1.077-1.593-.094-.72.25-1.344 1.031-1.875 3.75-2.313 6.14-4.688 7.172-7.125 1.062-2.47.875-4.516-.563-6.141-1.406-1.656-3.968-2.453-7.687-2.39-5.188.312-10.39 1.593-15.61 3.843-5.218 2.219-9.937 4.828-14.156 7.828-1.562 1.125-3.234 2.532-5.015 4.219-1.782 1.688-3.141 3.531-4.078 5.531-.907 1.969-.891 3.985.046 6.047 1.407 2.781 3.422 5.063 6.047 6.844a61.024 61.024 0 0 0 8.203 4.687c.657.344 1.297.672 1.922.985.938.5 1.89.984 2.86 1.453 1.906.875 3.75 1.86 5.53 2.953A20.056 20.056 0 0 1 42 68.578c.5.688.875 1.36 1.125 2.016a156.7 156.7 0 0 1 20.578-2.86ZM3.328 93.797c1.031.969 3.203 1.094 6.516.375 3.344-.719 7.062-2.063 11.156-4.031 4.125-1.938 7.89-4.266 11.297-6.985 3.406-2.75 5.719-5.64 6.937-8.672a108.976 108.976 0 0 0-16.593 4.829c-5.344 2-10.22 4.453-14.625 7.359-.5.344-1.22.937-2.157 1.781-.968.875-1.765 1.813-2.39 2.813-.625 1-.672 1.843-.14 2.53Zm102.754-25.969c.375.25.609.578.703.984.094.407.016.797-.234 1.172a5.72 5.72 0 0 1-1.172 1.125l-.141.141a45.47 45.47 0 0 1-7.687 4.594 64.851 64.851 0 0 1-9.235 3.89 15.514 15.514 0 0 1-3.375.75 6.982 6.982 0 0 1-3.281-.515c-1.219-.594-2.031-1.5-2.438-2.719a17.088 17.088 0 0 1-.796-3.797c-.125-1.062-.313-2-.563-2.812-.219-.813-.672-1.329-1.36-1.547-1-.031-2.093.578-3.28 1.828-1.188 1.25-2.344 2.719-3.47 4.406a141.218 141.218 0 0 0-2.812 4.5 526.75 526.75 0 0 1-.844 1.453l-3.14 5.297v.094c-.313.469-.735.75-1.266.844a1.994 1.994 0 0 1-1.5-.329c-1.281-1.093-1.937-3-1.969-5.718-.03-2.75.235-5.656.797-8.719.563-3.063 1.094-5.594 1.594-7.594.125-.469.219-.875.281-1.219a5.694 5.694 0 0 1-1.922-.046c-.53-.125-.921-.391-1.171-.797a1.964 1.964 0 0 1-.282-1.453c.125-.5.407-.891.844-1.172.406-.282.86-.375 1.36-.282a1.86 1.86 0 0 0 1.171 0 6.61 6.61 0 0 0 1.125-.609c.375-1.531 1.078-3.984 2.11-7.36a302.129 302.129 0 0 1 3.797-11.202c1.5-4.125 3.14-8.047 4.921-11.766 1.782-3.75 3.594-6.75 5.438-9 1.844-2.281 3.64-3.266 5.39-2.953a.417.417 0 0 0 .188.047c1.063.468 1.594 1.312 1.594 2.531s-.14 2.344-.422 3.375l-.094.469a85.195 85.195 0 0 1-3.89 11.343 142.751 142.751 0 0 1-5.063 10.876 72.774 72.774 0 0 1-8.672 13.546 21.54 21.54 0 0 1-2.86 2.72 184.326 184.326 0 0 0-1.921 9.374 52.68 52.68 0 0 0-.75 9.375c.156-.25.313-.516.469-.797a107.051 107.051 0 0 1 3.422-5.484 39.605 39.605 0 0 1 4.359-5.578c1.594-1.656 3.219-2.688 4.875-3.094 1.406-.281 2.61-.063 3.61.656 1 .719 1.656 1.766 1.968 3.14.188 1 .266 2.22.234 3.657-.03 1.094 0 2.14.094 3.14s.36 1.798.797 2.391c.844.782 2.578.75 5.203-.093 2.625-.875 5.89-2.47 9.797-4.782a32.609 32.609 0 0 0 5.859-4.171 8.698 8.698 0 0 0 1.454-1.641c.25-.375.578-.61.984-.703.406-.094.797-.016 1.172.234Zm-37.64-19.922a238.772 238.772 0 0 0-2.298 7.688 71.533 71.533 0 0 0 7.22-11.063 123.11 123.11 0 0 0 6.608-14.11 68.853 68.853 0 0 0 2.391-7.312v-.093c.281-1.032.422-2.078.422-3.141-1.063.406-2.078 1.281-3.047 2.625-.937 1.344-1.703 2.563-2.297 3.656l-.094.188a127.327 127.327 0 0 0-8.906 21.562Zm-6 36.282h.046-.047Zm87.987-15.516c.188.406.188.797 0 1.172a1.421 1.421 0 0 1-.89.75 66.25 66.25 0 0 0-2.672.703 214.23 214.23 0 0 1-6.422 1.594l-.469.093a67.68 67.68 0 0 1-6.187 1.22 25.997 25.997 0 0 1-6.235.187c-3.062-.438-5-1.641-5.812-3.61-.781-1.969-.922-4.328-.422-7.078 0-.031 0-.031 0 0-.5.313-.969.672-1.406 1.078v.047c.125.156.25.328.375.516.281.469.375.969.281 1.5-.063.531-.313.984-.75 1.36-.5.312-1.016.437-1.547.374-.531-.094-.984-.375-1.359-.844 0-.03 0-.03 0 0a119.832 119.832 0 0 0-3.328 3.563c-1.844 2-3.75 3.984-5.719 5.953a2.4 2.4 0 0 0-.516.469 18.795 18.795 0 0 1-3.234 2.484c-1.219.75-2.453.813-3.703.188l-.282-.188c-1-.812-1.609-1.812-1.828-3a8.052 8.052 0 0 1 .047-3.562c1-4.157 3.125-7.641 6.375-10.454 1.906-1.656 4-2.64 6.281-2.953 2.282-.312 4.454.36 6.516 2.016h.047a14.498 14.498 0 0 1 2.859-1.969 3.799 3.799 0 0 1 1.875-.468c.688 0 1.282.25 1.782.75.437.53.64 1.109.609 1.734 0 .594-.078 1.172-.234 1.734a.525.525 0 0 1-.047.235c-.063.28-.125.593-.188.937a19.638 19.638 0 0 0-.703 4.125c-.094 1.438.328 2.594 1.266 3.469 1.625 1.031 3.75 1.297 6.375.797 2.625-.5 5.047-1.125 7.265-1.875l1.547-.516a66.695 66.695 0 0 0 8.625-3.234c.375-.156.735-.172 1.078-.047.344.125.594.375.75.75Zm-40.078.562v-.046l4.078-4.079c-1.687-.843-3.484-.484-5.39 1.079-1.907 1.562-3.532 3.437-4.875 5.624-1.313 2.157-1.922 3.75-1.828 4.782 1-.625 1.937-1.375 2.812-2.25 1.625-1.5 3.25-3.094 4.875-4.781l.328-.329Zm75.285-.093a.94.94 0 0 1-.234.843c-.188.25-.453.375-.797.375h-1.313c-2.25.063-4.5.063-6.75 0h-.375a75.098 75.098 0 0 1-5.484-.421 21.05 21.05 0 0 1-5.484-1.36c-1.719-.719-3.063-1.812-4.032-3.281-.75-1.344-1.171-2.75-1.265-4.219a2.404 2.404 0 0 1-.047-.469 2.924 2.924 0 0 0-.375-1.312h-.469c-1.562.687-3.265 2.797-5.109 6.328a118.666 118.666 0 0 0-5.016 11.203c-1.5 3.938-2.562 6.844-3.187 8.719-.313.719-.766 1.14-1.36 1.266-.625.093-1.172-.047-1.64-.422-.5-.407-.719-1-.657-1.782l.469-2.718c.313-1.844.703-4.094 1.172-6.75.438-2.688.875-5.36 1.313-8.016.468-2.688.859-4.938 1.171-6.75l.469-2.766c.219-.812.641-1.297 1.266-1.453a1.91 1.91 0 0 1 1.734.282c.531.374.766.968.703 1.78l-1.547 9.141a.42.42 0 0 0 .047.188.37.37 0 0 0 .141.047.314.314 0 0 0 .141-.14 52.706 52.706 0 0 1 2.625-4.688c1.031-1.688 2.156-3.125 3.375-4.313 1.25-1.219 2.546-1.86 3.89-1.922a3.09 3.09 0 0 1 1.828.563c.563.343.953.843 1.172 1.5a9.21 9.21 0 0 1 .235 2.437c0 .594.031 1.172.093 1.735.438 2.28 1.719 3.828 3.844 4.64 2.156.813 4.297 1.281 6.422 1.406 3.969.25 7.906.047 11.812-.609.313-.031.579.047.797.234.25.157.391.391.422.704Zm75.191-.329c.188.313.25.641.188.985-.063.312-.25.562-.563.75a140.767 140.767 0 0 1-8.531 4.687c-1.75.875-3.672 1.657-5.765 2.344-2.063.656-4.11.922-6.141.797-2-.156-3.797-1.016-5.391-2.578-.937-1-1.703-2.094-2.297-3.281a34.433 34.433 0 0 1-1.546-3.704 16.404 16.404 0 0 1-.094-.187 4.335 4.335 0 0 0-.235-.563 12.014 12.014 0 0 0-.89-1.921.456.456 0 0 0-.281-.188.312.312 0 0 0-.282.047 15.146 15.146 0 0 0-3 2.484 5.71 5.71 0 0 1-.468.422 114.858 114.858 0 0 0-7.407 8.578l-1.781 2.25c-.219.282-.422.547-.609.797-.5.594-1.11.828-1.828.703-.688-.156-1.157-.593-1.407-1.312-.593-2.313-.422-4.656.516-7.031a46.519 46.519 0 0 1 3.422-6.985c1.25-2.125 2.187-4.062 2.812-5.812.657-1.75.532-3.203-.375-4.36-.906-1.187-3.047-1.968-6.422-2.343-3.062-.282-6.531-.25-10.406.093-3.844.344-7.265.844-10.265 1.5a3.491 3.491 0 0 0-.61.141c-1.719.344-3.328.89-4.828 1.64a1.496 1.496 0 0 0-.234.188l.375.094a12.82 12.82 0 0 1 4.031 1.734c1.562 1.157 2.531 2.61 2.906 4.36.406 1.718.422 3.484.047 5.297-.312 1.718-1.109 3.703-2.391 5.953-1.25 2.218-2.796 4.03-4.64 5.437-1.844 1.375-3.781 1.656-5.813.844a1.862 1.862 0 0 1-.468-.281c-1.375-1.094-2.063-2.547-2.063-4.36 0-1.844.266-3.531.797-5.062.625-2.063 1.594-4 2.906-5.813 1.344-1.812 3.094-3.062 5.25-3.75.406-.062.719.032.938.282.218.218.297.5.234.843-.031.313-.219.547-.562.703-1.157.625-2.407 2.125-3.75 4.5-1.344 2.375-2.36 4.797-3.047 7.266-.688 2.438-.61 4.078.234 4.922h.047c.031.031.062.047.094.047a.357.357 0 0 0 .14.047l.047.046c1.125.344 2.297-.218 3.516-1.687 1.219-1.469 2.297-3.328 3.234-5.578.938-2.281 1.547-4.453 1.828-6.516.313-2.062.125-3.515-.562-4.36-1.344-1.25-2.625-2.155-3.844-2.718-.812-.406-1.375-.781-1.687-1.125l-.141-.281a.892.892 0 0 0-.047-.281c-.031-.75.25-1.313.844-1.688a7.31 7.31 0 0 1 1.922-.937l.562-.188c1.438-.5 2.906-.89 4.406-1.172a80.55 80.55 0 0 1 17.954-1.453h.234c1.437 0 3.047.172 4.828.516a8.048 8.048 0 0 1 4.547 2.437c1.25 1.282 1.797 3.36 1.641 6.235-.157 2.843-1.454 6.797-3.891 11.859a79.955 79.955 0 0 1 6.234-6.797c.125-.094.25-.203.375-.328.875-.875 1.922-1.719 3.141-2.531 1.25-.844 2.469-1.188 3.656-1.032.719.22 1.297.672 1.735 1.36.468.656.812 1.297 1.031 1.922a63.531 63.531 0 0 1 1.078 3.61c.5 2.28 1.203 4.312 2.109 6.093 1.032 1.531 2.719 2.125 5.063 1.781 2.344-.344 4.844-1.156 7.5-2.437 2.656-1.313 4.984-2.594 6.984-3.844 2-1.281 3.172-2.063 3.516-2.344.25-.187.531-.25.844-.187.312.03.578.171.796.421Zm5.207-28.171c.657 1.812.704 3.625.141 5.437-.562 1.781-1.609 3.234-3.141 4.36-.937.687-1.953 1.109-3.046 1.265a.581.581 0 0 1-.329-.094.597.597 0 0 1-.14-.28.51.51 0 0 1 .047-.235.448.448 0 0 1 .234-.188 5.676 5.676 0 0 0 2.906-2.625c.688-1.218.953-2.5.797-3.843-.125-.813-.406-1.5-.844-2.063-.312-.438-.437-.906-.375-1.406.094-.5.344-.922.75-1.266.563-.375 1.141-.469 1.735-.281.594.187 1.015.594 1.265 1.219Zm41.488 28.265c.063.344 0 .672-.187.985-.188.28-.469.468-.844.562h-.094a3.796 3.796 0 0 1-.843 0c-.313 0-.625.016-.938.047a34.133 34.133 0 0 0-4.687.516c-4.157.812-8.219 2-12.188 3.562a80.17 80.17 0 0 0-9.328 4.172.448.448 0 0 0-.187.234.424.424 0 0 0 0 .282c.531 1.656.281 3.109-.75 4.359a9.276 9.276 0 0 1-3.797 2.766 6.949 6.949 0 0 1-2.766.562h-.047c-.187 0-.422-.062-.703-.187-.031 0-.047-.016-.047-.047-1.531-1.125-1.703-2.375-.515-3.75 1.187-1.375 2.89-2.656 5.109-3.844a.731.731 0 0 0 .187-.281c.032-.125 0-.25-.093-.375A259.58 259.58 0 0 0 272.132 75a93.17 93.17 0 0 1-2.953-3.797l-.047-.047a26.931 26.931 0 0 1-1.969-2.953 9.39 9.39 0 0 1-1.125-3.422c-.156-1.469.156-2.812.938-4.031.781-1.219 1.765-2.172 2.953-2.86 1.437-.874 3.093-1.453 4.968-1.734 1.875-.312 3.594-.125 5.157.563 1.593.843 2.234 1.906 1.922 3.187-.313 1.25-1.157 2.547-2.532 3.89a31.397 31.397 0 0 1-4.312 3.61c-1.531 1.031-2.703 1.735-3.516 2.11.781 1.156 1.61 2.328 2.485 3.515a218.115 218.115 0 0 1 3.046 4.36.454.454 0 0 0 .235.187.309.309 0 0 0 .281-.047c1.406-.656 2.5-1.172 3.281-1.547.157-.062.297-.109.422-.14a142.858 142.858 0 0 1 18.188-6.469 79.014 79.014 0 0 1 6.375-1.547 1.21 1.21 0 0 1 .984.234c.313.188.516.47.609.844Zm-26.953-11.344-.093-.093c-.844-.657-2.266-.703-4.266-.14-1.969.562-3.688 1.64-5.156 3.233-1.438 1.594-1.797 3.594-1.078 6 .062.126.187.22.375.282.187.062.406.031.656-.094 1-.563 2.328-1.422 3.984-2.578 1.656-1.156 3.078-2.344 4.266-3.563 1.219-1.25 1.656-2.265 1.312-3.047Zm-10.687 28.126c.406.374 1.109.328 2.109-.141 1-.5 1.922-1.203 2.766-2.11.875-.937 1.328-1.828 1.359-2.671 0-.188-.078-.313-.234-.375a.497.497 0 0 0-.422 0c-.719.406-1.563.937-2.531 1.593-.969.657-1.782 1.329-2.438 2.016-.656.656-.859 1.219-.609 1.688Z" fill="#fff"/></svg>