<svg width="24" height="25" fill="none" xmlns="http://www.w3.org/2000/svg"><path d="M18.024 4.397a1.317 1.317 0 0 1 .967.426c.127.134.227.294.294.47a1.512 1.512 0 0 1-.31 1.571c-.256.27-.603.425-.966.43-.365 0-.715-.152-.973-.423a1.489 1.489 0 0 1-.403-1.025c0-.384.145-.753.403-1.024.258-.272.608-.425.973-.425h.015Z" fill="#3D3D3D"/><path d="M23.187 6.258c.17 1.9.281 10.905-.251 12.977a6.25 6.25 0 0 1-1.795 3.267 5.729 5.729 0 0 1-3.265 1.555c-2.1.217-4.209.308-6.318.272a36.964 36.964 0 0 1-6.369-.358 5.676 5.676 0 0 1-3.098-1.849 6.196 6.196 0 0 1-1.466-3.417C.315 16.672.285 7.208.839 5.16A6.23 6.23 0 0 1 2.64 1.999 5.72 5.72 0 0 1 5.833.486 42.257 42.257 0 0 1 11.58.198c2.138 0 4.298.062 5.592.132 1.56.04 3.05.683 4.187 1.807a6.463 6.463 0 0 1 1.827 4.121Zm-2.219 12.05c.313-3.951.362-7.92.148-11.879a4.16 4.16 0 0 0-1.046-2.572 3.779 3.779 0 0 0-2.379-1.244 50.507 50.507 0 0 0-5.726-.226c-2.286 0-4.557.062-5.555.179A3.827 3.827 0 0 0 3.953 3.68a4.21 4.21 0 0 0-1.205 2.515 86.307 86.307 0 0 0-.081 12.182 4 4 0 0 0 .896 2.185A3.67 3.67 0 0 0 5.5 21.79c2.04.31 4.102.43 6.162.358 2.404 0 4.764-.078 5.652-.179a3.818 3.818 0 0 0 2.49-1.113 4.204 4.204 0 0 0 1.209-2.548" fill="#3D3D3D"/><path d="M11.913 6.08c.773 0 1.539.162 2.252.476.713.314 1.36.775 1.902 1.355.542.58.97 1.267 1.258 2.023.287.755.43 1.564.418 2.377-.012 1.645-.64 3.218-1.75 4.377-1.108 1.158-2.607 1.808-4.168 1.808a5.567 5.567 0 0 1-2.253-.474 5.814 5.814 0 0 1-1.903-1.354 6.17 6.17 0 0 1-1.258-2.024 6.418 6.418 0 0 1-.416-2.38c.012-1.644.64-3.217 1.75-4.376C8.852 6.73 10.35 6.08 11.912 6.08Zm-.081 10.188a3.75 3.75 0 0 0 2.682-1.161 4.156 4.156 0 0 0 1.15-2.803 4.089 4.089 0 0 0-1.055-2.827 3.687 3.687 0 0 0-2.644-1.216h-.037a3.75 3.75 0 0 0-2.682 1.161 4.156 4.156 0 0 0-1.15 2.804 4.15 4.15 0 0 0 .263 1.534c.182.488.456.933.803 1.309.348.376.763.675 1.22.881.46.206.952.314 1.45.318Z" fill="#3D3D3D"/></svg>