<svg width="19" height="22" fill="none" xmlns="http://www.w3.org/2000/svg"><path d="M14.603 4.473c.15 0 .297.031.435.092a1.148 1.148 0 0 1 .611.65 1.243 1.243 0 0 1-.257 1.303 1.13 1.13 0 0 1-.801.357c-.302 0-.593-.127-.806-.352a1.234 1.234 0 0 1-.335-.849c0-.318.12-.624.335-.849.213-.225.504-.352.806-.352h.012Z" fill="#fff"/><path d="M18.883 6.015c.14 1.576.233 9.038-.209 10.756a5.18 5.18 0 0 1-1.487 2.707 4.747 4.747 0 0 1-2.706 1.289c-1.74.18-3.488.256-5.236.226a30.64 30.64 0 0 1-5.279-.297 4.705 4.705 0 0 1-2.567-1.533 5.136 5.136 0 0 1-1.216-2.831c-.257-1.685-.282-9.53.178-11.227a5.163 5.163 0 0 1 1.493-2.62 4.74 4.74 0 0 1 2.645-1.253 35.021 35.021 0 0 1 4.764-.24c1.772 0 3.562.052 4.635.11a5.12 5.12 0 0 1 3.47 1.498 5.357 5.357 0 0 1 1.515 3.415Zm-1.84 9.987c.26-3.274.3-6.564.123-9.845a3.446 3.446 0 0 0-.867-2.131 3.132 3.132 0 0 0-1.972-1.032 41.859 41.859 0 0 0-4.745-.187c-1.894 0-3.777.051-4.604.148a3.172 3.172 0 0 0-2.036.925 3.49 3.49 0 0 0-1 2.084 71.529 71.529 0 0 0-.067 10.097c.063.67.323 1.303.744 1.81.42.507.982.863 1.605 1.017 1.69.256 3.4.356 5.107.297 1.992 0 3.948-.064 4.684-.148a3.163 3.163 0 0 0 2.063-.923 3.484 3.484 0 0 0 1.002-2.112" fill="#fff"/><path d="M9.539 5.868c.64 0 1.275.134 1.866.394.59.26 1.127.642 1.576 1.123.45.48.804 1.05 1.043 1.677.238.626.356 1.296.346 1.97a5.304 5.304 0 0 1-1.45 3.627 4.782 4.782 0 0 1-3.455 1.5 4.614 4.614 0 0 1-1.867-.393 4.82 4.82 0 0 1-1.577-1.123 5.114 5.114 0 0 1-1.042-1.678 5.32 5.32 0 0 1-.345-1.971 5.304 5.304 0 0 1 1.45-3.627 4.782 4.782 0 0 1 3.455-1.5Zm-.068 8.444a3.108 3.108 0 0 0 2.223-.963 3.445 3.445 0 0 0 .953-2.323 3.39 3.39 0 0 0-.874-2.343 3.056 3.056 0 0 0-2.191-1.008h-.03a3.108 3.108 0 0 0-2.224.963 3.444 3.444 0 0 0-.953 2.323c-.008.435.066.867.218 1.272.151.404.378.773.666 1.085.288.311.632.56 1.011.73.38.17.789.26 1.201.264Z" fill="#fff"/></svg>