<svg width="20" height="18" fill="none" xmlns="http://www.w3.org/2000/svg"><path d="M20 2.904a5.82 5.82 0 0 1-.462.608 7.713 7.713 0 0 1-1.495 1.397l-.074.127c.022.61-.006 1.219-.086 1.823a12.077 12.077 0 0 1-1.077 3.602 11.891 11.891 0 0 1-2.24 3.177 11.117 11.117 0 0 1-5.65 3.104c-.75.153-1.515.24-2.282.26h-.37A11.581 11.581 0 0 1 .112 15.26L0 15.186c.319.034.64.05.96.048a8.327 8.327 0 0 0 5.095-1.731 4.09 4.09 0 0 1-2.347-.797 4.005 4.005 0 0 1-1.437-1.997c.25.048.503.072.757.073a4.65 4.65 0 0 0 .997-.116l.061-.03a4.059 4.059 0 0 1-1.516-.638 4 4 0 0 1-1.13-1.184A3.898 3.898 0 0 1 .855 6.67a4.086 4.086 0 0 0 1.847.48A4.026 4.026 0 0 1 1.04 4.72c-.258-1.01-.1-2.08.437-2.976a11.577 11.577 0 0 0 3.742 3.007 11.724 11.724 0 0 0 4.658 1.245c0-.164-.043-.304-.062-.443a3.89 3.89 0 0 1 .616-2.643 3.93 3.93 0 0 1 1.19-1.215 3.994 3.994 0 0 1 1.598-.607c.247-.053.498-.086.75-.097A3.972 3.972 0 0 1 16.8 2.206c.038.04.091.064.148.066h.067a8.328 8.328 0 0 0 2.388-.929h.056a4.042 4.042 0 0 1-1.742 2.199A8.025 8.025 0 0 0 20 2.904Z" fill="#fff"/></svg>