<svg width="25" height="20" fill="none" xmlns="http://www.w3.org/2000/svg"><path d="M24.404 2.917a7.07 7.07 0 0 1-.557.733 9.33 9.33 0 0 1-1.804 1.686l-.09.154c.027.734-.007 1.47-.103 2.199a14.566 14.566 0 0 1-1.3 4.346 14.342 14.342 0 0 1-2.703 3.833 13.414 13.414 0 0 1-6.816 3.745 15.79 15.79 0 0 1-2.754.316H7.83a13.973 13.973 0 0 1-7.425-2.104l-.134-.088c.385.041.772.06 1.159.059a10.048 10.048 0 0 0 3.786-.733 9.835 9.835 0 0 0 2.362-1.356 4.935 4.935 0 0 1-2.833-.961 4.832 4.832 0 0 1-1.734-2.41c.301.058.607.087.913.087.405-.002.809-.05 1.203-.139l.075-.037a4.898 4.898 0 0 1-1.83-.77A4.827 4.827 0 0 1 2.01 10.05a4.703 4.703 0 0 1-.706-2.588 4.928 4.928 0 0 0 2.228.58A4.858 4.858 0 0 1 1.527 5.11a4.71 4.71 0 0 1 .527-3.592A13.969 13.969 0 0 0 6.57 5.146a14.146 14.146 0 0 0 5.62 1.502c0-.198-.052-.367-.075-.535a4.694 4.694 0 0 1 .743-3.188 4.749 4.749 0 0 1 1.435-1.467 4.82 4.82 0 0 1 1.928-.732c.298-.065.602-.104.906-.117a4.82 4.82 0 0 1 1.86.39 4.768 4.768 0 0 1 1.556 1.075c.046.05.11.078.178.081h.082a10.049 10.049 0 0 0 2.88-1.121h.067a4.877 4.877 0 0 1-2.1 2.653 9.682 9.682 0 0 0 2.754-.77Z" fill="#3D3D3D"/></svg>